<svg blocklyprop="blocklypropproject" xmlns="http://www.w3.org/2000/svg" xmlns:html="http://www.w3.org/1999/xhtml" xmlns:xlink="http://www.w3.org/1999/xlink" version="1.1" class="blocklySvg"><style>.blocklySvg { background-color: #fff; overflow: auto; width:1145.5289306640625px; height:707.6485748291016px;} .blocklyWidgetDiv {display: none; position: absolute; z-index: 999;} .blocklyPathLight { fill: none; stroke-linecap: round; stroke-width: 2;} .blocklyDisabled>.blocklyPath { fill-opacity: .5; stroke-opacity: .5;} .blocklyDisabled>.blocklyPathLight, .blocklyDisabled>.blocklyPathDark {display: none;} .blocklyText {cursor: default; fill: #fff; font-family: sans-serif; font-size: 11pt;} .blocklyNonEditableText>text { pointer-events: none;} .blocklyNonEditableText>rect, .blocklyEditableText>rect {fill: #fff; fill-opacity: .6;} .blocklyNonEditableText>text, .blocklyEditableText>text {fill: #000;} .blocklyBubbleText {fill: #000;} .blocklySvg text {user-select: none; -moz-user-select: none; -webkit-user-select: none; cursor: inherit;} .blocklyHidden {display: none;} .blocklyFieldDropdown:not(.blocklyHidden) {display: block;} .bkginfo {cursor: default; fill: rgba(0, 0, 0, 0.3); font-family: sans-serif; font-size: 10pt;}</style><g class="blocklyBlockCanvas" transform="translate(682.5187072753911,233.64857482910168) scale(1)"><g class="blocklyMarker"><g width="100" height="5"><rect width="100" height="5" style="display: none"></rect><rect class="blocklyVerticalMarker" rx="10" ry="10" style="display: none"></rect><path transform="" style="display: none"></path><path transform="" style="display: none" fill="none" stroke-width="4"></path></g></g><g class="blocklyCursor"><g width="100" height="5"><rect width="100" height="5" style="display: none"><animate attributeType="XML" attributeName="fill" dur="1s" values="#cc0a0a;transparent;transparent;" repeatCount="indefinite"></animate></rect><rect class="blocklyVerticalMarker" rx="10" ry="10" style="display: none"></rect><path transform="" style="display: none"><animate attributeType="XML" attributeName="fill" dur="1s" values="#cc0a0a;transparent;transparent;" repeatCount="indefinite"></animate></path><path transform="" style="display: none" fill="none" stroke-width="4"><animate attributeType="XML" attributeName="stroke" dur="1s" values="#cc0a0a;transparent;transparent;" repeatCount="indefinite"></animate></path></g></g><g data-id="0Pzv1;%w.MQ^b1XQKFKV" class="blocklyDraggable" transform="translate(-158,-182)"><path class="blocklyPathDark" transform="translate(1,1)" fill="#1e547a" d=" m 0,0  m 0,8 a 8 8 0 0,1 8,-8  h 7  l 6,4  3,0  6,-4  h 96.42283630371094  v 5  H 126.42283630371094  V 5  H 126.42283630371094  V 22  H 126.42283630371094  V 26  H 66  l -6,4  -3,0  -6,-4  h -7 a 8 8 0 0,0 -8,8  v 433 a 8 8 0 0,0 8,8  H 66  H 66  V 475  V 485  h -36.5  l -6,4  -3,0  -6,-4  h -6.5 a 8 8 0 0,1 -8,-8 z
"></path><path class="blocklyPath" stroke="none" fill="#266999" d=" m 0,0  m 0,8 a 8 8 0 0,1 8,-8  h 7  l 6,4  3,0  6,-4  h 96.42283630371094  v 5  H 126.42283630371094  V 5  H 126.42283630371094  V 22  H 126.42283630371094  V 26  H 66  l -6,4  -3,0  -6,-4  h -7 a 8 8 0 0,0 -8,8  v 433 a 8 8 0 0,0 8,8  H 66  H 66  V 475  V 485  h -36.5  l -6,4  -3,0  -6,-4  h -6.5 a 8 8 0 0,1 -8,-8 z
"></path><path class="blocklyPathLight" stroke="#6796b8" d=" m 0,0  m 0.5,8 a 7.5 7.5 0 0,1 8,-7.5  H 14.5  h 0.5  l 6,4  3,0  6,-4  H 125.92283630371094  H 125.92283630371094  M 36,475  m 1.9895923599143455,-1.9895923599143455 a 8.5 8.5 0 0,0 6.0104076400856545,2.4895923599143455  l 21.5,0  H 65.5  M 0,485  m 2.6966991411008934,-2.6966991411008934 a 7.5 7.5 0 0,1 -2.1966991411008934,-5.303300858899107  V 8 
"></path><g transform="translate(10,5)"><text class="blocklyText" x="0" y="14">repeat</text></g><g class="blocklyEditableText" transform="translate(56,5)" style="cursor: default;"><rect rx="4" ry="4" x="0" y="0" height="17" width="65.42283630371094" class="blocklyFieldRect blocklyDropdownRect" stroke="#6796b8" fill="transparent"></rect><text class="blocklyText blocklyDropdownText" text-anchor="start" x="5" y="14">forever<tspan style="fill: rgb(38, 105, 153);"> ▾</tspan></text><image style="display: none;"></image></g><g transform="translate(10,31)"><text class="blocklyText" x="0" y="14">do</text></g><g data-id="%t7tX3aFY-I8OCAZ|BCc" class="blocklyDraggable" style="display: block;" transform="translate(37,27)"><path class="blocklyPathDark" transform="translate(1,1)" fill="#7a1e3d" d=" m 0,0  m 0,8 a 8 8 0 0,1 8,-8  h 7  l 6,4  3,0  6,-4  h 130  v 5  H 160  V 5  H 160  V 22  H 160  V 22  V 26  h -130.5  l -6,4  -3,0  -6,-4  h -14.5  H 0 z
"></path><path class="blocklyPath" stroke="none" fill="#99264c" d=" m 0,0  m 0,8 a 8 8 0 0,1 8,-8  h 7  l 6,4  3,0  6,-4  h 130  v 5  H 160  V 5  H 160  V 22  H 160  V 22  V 26  h -130.5  l -6,4  -3,0  -6,-4  h -14.5  H 0 z
"></path><path class="blocklyPathLight" stroke="#b86782" d=" m 0,0  m 0.5,8 a 7.5 7.5 0 0,1 8,-7.5  H 14.5  h 0.5  l 6,4  3,0  6,-4  H 159.5  H 159.5  M 0.5,25.5  V 8 
"></path><g transform="translate(10,5)"><text class="blocklyText" x="0" y="14">Terminal clear screen</text></g><g data-id="Uy{DDA*{@%ro)w22`+y{" class="blocklyDraggable" transform="translate(0,27)"><path class="blocklyPathDark" transform="translate(1,1)" fill="#7a1e3d" d=" m 0,0  h 15  l 6,4  3,0  6,-4  h 317.01025390625  v 5  H 347.01025390625  V 5  H 347.01025390625  V 33  H 347.01025390625  V 33  V 37  h -317.51025390625  l -6,4  -3,0  -6,-4  h -14.5  H 0 z
 M 141,5  v 5  c 0,10  -8,-8  -8,7.5  s 8,-2.5  8,7.5  v 8  h 75  v -28 z"></path><path class="blocklyPath" stroke="none" fill="#99264c" d=" m 0,0  h 15  l 6,4  3,0  6,-4  h 317.01025390625  v 5  H 347.01025390625  V 5  H 347.01025390625  V 33  H 347.01025390625  V 33  V 37  h -317.51025390625  l -6,4  -3,0  -6,-4  h -14.5  H 0 z
 M 141,5  v 5  c 0,10  -8,-8  -8,7.5  s 8,-2.5  8,7.5  v 8  h 75  v -28 z"></path><path class="blocklyPathLight" stroke="#b86782" d=" m 0,0  m 0.5,0.5  H 14.5  h 0.5  l 6,4  3,0  6,-4  H 346.51025390625  H 346.51025390625  M 0.5,36.5  V 0.5 
 M 216.5,5.5  v 28  h -75  M 141,10  m -5,14.3  l 3.68,-2.1 "></path><g transform="translate(10,10)"><text class="blocklyText" x="0" y="14">Terminal print text</text></g><g transform="translate(226,10)"><text class="blocklyText" x="0" y="14">then a new line</text></g><g class="blocklyEditableText" transform="translate(328,10)" style="cursor: default;"><rect rx="4" ry="4" x="0" y="0" height="17" width="14.01025390625" class="blocklyFieldRect"></rect><text class="blocklyText blocklyCheckbox" x="2" y="14" style="display: block;">✓</text></g><g data-id="gzk06Z,V%F8/-ABmt::K" class="blocklyDraggable" style="display: block;" transform="translate(134,6)"><path class="blocklyPathDark" transform="translate(1,1)" fill="#1e547a" d=" m 8,0  h 73  v 5  H 81  V 5  H 81  V 22  H 81  V 22  V 26  h -73  H 8  V 20  c 0,-10  -8,8  -8,-7.5  s 8,2.5  8,-7.5 z
"></path><path class="blocklyPath" stroke="none" fill="#266999" d=" m 8,0  h 73  v 5  H 81  V 5  H 81  V 22  H 81  V 22  V 26  h -73  H 8  V 20  c 0,-10  -8,8  -8,-7.5  s 8,2.5  8,-7.5 z
"></path><path class="blocklyPathLight" stroke="#6796b8" d=" m 8,0  m 0.5,0.5  H 80.5  H 80.5  M 8.5,25.5  M 8.5,25.5  V 20  v -1.5  m -7.36,-0.5  q -1.52,-5.5  0,-11  m 7.36,1  V 0.5 
"></path><g transform="translate(18,5)"><text class="blocklyText" x="0" y="14">“</text></g><g class="blocklyEditableText" transform="translate(28,5)" style="cursor: text;"><rect rx="4" ry="4" x="0" y="0" height="17" width="33" class="blocklyFieldRect"></rect><text class="blocklyText" x="5" y="14">L/R</text></g><g transform="translate(66,5)"><text class="blocklyText" x="0" y="14">”</text></g></g><g data-id="E~F~/(K?hA!mDx~}DLju" class="blocklyDraggable" transform="translate(0,38)"><path class="blocklyPathDark" transform="translate(1,1)" fill="#1e727a" d=" m 0,0  h 15  l 6,4  3,0  6,-4  h 156.42283630371094  v 5  H 186.42283630371094  V 5  H 186.42283630371094  V 33  H 186.42283630371094  V 33  V 37  h -156.92283630371094  l -6,4  -3,0  -6,-4  h -14.5  H 0 z
 M 92,5  v 5  c 0,10  -8,-8  -8,7.5  s 8,-2.5  8,7.5  v 8  h 38  v -28 z"></path><path class="blocklyPath" stroke="none" fill="#268f99" d=" m 0,0  h 15  l 6,4  3,0  6,-4  h 156.42283630371094  v 5  H 186.42283630371094  V 5  H 186.42283630371094  V 33  H 186.42283630371094  V 33  V 37  h -156.92283630371094  l -6,4  -3,0  -6,-4  h -14.5  H 0 z
 M 92,5  v 5  c 0,10  -8,-8  -8,7.5  s 8,-2.5  8,7.5  v 8  h 38  v -28 z"></path><path class="blocklyPathLight" stroke="#67b1b8" d=" m 0,0  m 0.5,0.5  H 14.5  h 0.5  l 6,4  3,0  6,-4  H 185.92283630371094  H 185.92283630371094  M 0.5,36.5  V 0.5 
 M 130.5,5.5  v 28  h -38  M 92,10  m -5,14.3  l 3.68,-2.1 "></path><g transform="translate(10,10)"><text class="blocklyText" x="0" y="14">make PIN</text></g><g class="blocklyEditableText" transform="translate(135,10)" style="cursor: default;"><rect rx="4" ry="4" x="0" y="0" height="17" width="46.42283630371094" class="blocklyFieldRect blocklyDropdownRect" stroke="#67b1b8" fill="transparent"></rect><text class="blocklyText blocklyDropdownText" text-anchor="start" x="5" y="14">high<tspan style="fill: rgb(38, 143, 153);"> ▾</tspan></text><image style="display: none;"></image></g><g data-id="(@D+54`9`q]cK4k4/#c%" class="blocklyDraggable" style="display: block;" transform="translate(85,6)"><path class="blocklyPathDark" transform="translate(1,1)" fill="#1e547a" d=" m 8,0  h 36  v 5  H 44  V 5  H 44  V 22  H 44  V 22  V 26  h -36  H 8  V 20  c 0,-10  -8,8  -8,-7.5  s 8,2.5  8,-7.5 z
"></path><path class="blocklyPath" stroke="none" fill="#266999" d=" m 8,0  h 36  v 5  H 44  V 5  H 44  V 22  H 44  V 22  V 26  h -36  H 8  V 20  c 0,-10  -8,8  -8,-7.5  s 8,2.5  8,-7.5 z
"></path><path class="blocklyPathLight" stroke="#6796b8" d=" m 8,0  m 0.5,0.5  H 43.5  H 43.5  M 8.5,25.5  M 8.5,25.5  V 20  v -1.5  m -7.36,-0.5  q -1.52,-5.5  0,-11  m 7.36,1  V 0.5 
"></path><g class="blocklyEditableText" transform="translate(13,5)" style="cursor: text;"><rect rx="4" ry="4" x="0" y="0" height="17" width="26" class="blocklyFieldRect"></rect><text class="blocklyText" x="5" y="14">13</text></g></g><g data-id="#g+i2=Z}d.3kpLxU5xzY" class="blocklyDraggable" transform="translate(0,38)"><path class="blocklyPathDark" transform="translate(1,1)" fill="#1e547a" d=" m 0,0  h 15  l 6,4  3,0  6,-4  h 111  v 5  H 141  V 5  H 141  V 33  H 141  V 33  V 37  h -111.5  l -6,4  -3,0  -6,-4  h -14.5  H 0 z
 M 101,5  v 5  c 0,10  -8,-8  -8,7.5  s 8,-2.5  8,7.5  v 8  h 30  v -28 z"></path><path class="blocklyPath" stroke="none" fill="#266999" d=" m 0,0  h 15  l 6,4  3,0  6,-4  h 111  v 5  H 141  V 5  H 141  V 33  H 141  V 33  V 37  h -111.5  l -6,4  -3,0  -6,-4  h -14.5  H 0 z
 M 101,5  v 5  c 0,10  -8,-8  -8,7.5  s 8,-2.5  8,7.5  v 8  h 30  v -28 z"></path><path class="blocklyPathLight" stroke="#6796b8" d=" m 0,0  m 0.5,0.5  H 14.5  h 0.5  l 6,4  3,0  6,-4  H 140.5  H 140.5  M 0.5,36.5  V 0.5 
 M 131.5,5.5  v 28  h -30  M 101,10  m -5,14.3  l 3.68,-2.1 "></path><g transform="translate(10,10)"><text class="blocklyText" x="0" y="14">pause (ms)</text></g><g data-id="$@kx)BmKy}0T=)PeaDb~" class="blocklyDraggable" style="display: block;" transform="translate(94,6)"><path class="blocklyPathDark" transform="translate(1,1)" fill="#1e547a" d=" m 8,0  h 28  v 5  H 36  V 5  H 36  V 22  H 36  V 22  V 26  h -28  H 8  V 20  c 0,-10  -8,8  -8,-7.5  s 8,2.5  8,-7.5 z
"></path><path class="blocklyPath" stroke="none" fill="#266999" d=" m 8,0  h 28  v 5  H 36  V 5  H 36  V 22  H 36  V 22  V 26  h -28  H 8  V 20  c 0,-10  -8,8  -8,-7.5  s 8,2.5  8,-7.5 z
"></path><path class="blocklyPathLight" stroke="#6796b8" d=" m 8,0  m 0.5,0.5  H 35.5  H 35.5  M 8.5,25.5  M 8.5,25.5  V 20  v -1.5  m -7.36,-0.5  q -1.52,-5.5  0,-11  m 7.36,1  V 0.5 
"></path><g class="blocklyEditableText" transform="translate(13,5)" style="cursor: text;"><rect rx="4" ry="4" x="0" y="0" height="17" width="18" class="blocklyFieldRect"></rect><text class="blocklyText" x="5" y="14">1</text></g></g><g data-id="@OqyW.G!:,-u71|?*VgN" class="blocklyDraggable" style="display: block;" transform="translate(0,38)"><path class="blocklyPathDark" transform="translate(1,1)" fill="#2e1e7a" d=" m 0,0  h 15  l 6,4  3,0  6,-4  h 47.42283630371094  v 5  H 77.42283630371094  V 5  H 77.42283630371094  c 0,10  -8,-8  -8,7.5  s 8,-2.5  8,7.5  v 2  H 77.42283630371094  V 22  V 26  h -47.92283630371094  l -6,4  -3,0  -6,-4  h -14.5  H 0 z
"></path><path class="blocklyPath" stroke="none" fill="#392699" d=" m 0,0  h 15  l 6,4  3,0  6,-4  h 47.42283630371094  v 5  H 77.42283630371094  V 5  H 77.42283630371094  c 0,10  -8,-8  -8,7.5  s 8,-2.5  8,7.5  v 2  H 77.42283630371094  V 22  V 26  h -47.92283630371094  l -6,4  -3,0  -6,-4  h -14.5  H 0 z
"></path><path class="blocklyPathLight" stroke="#7467b8" d=" m 0,0  m 0.5,0.5  H 14.5  h 0.5  l 6,4  3,0  6,-4  H 76.92283630371094  H 76.92283630371094  M 77.42283630371094,5  m -5,14.3  l 3.68,-2.1  M 0.5,25.5  V 0.5 
"></path><g class="blocklyEditableText" transform="translate(5,5)" style="cursor: default;"><rect rx="4" ry="4" x="0" y="0" height="17" width="40.42283630371094" class="blocklyFieldRect blocklyDropdownRect" stroke="#7467b8" fill="transparent"></rect><text class="blocklyText blocklyDropdownText" text-anchor="start" x="5" y="14">tLF<tspan style="fill: rgb(57, 38, 153);"> ▾</tspan></text><image style="display: none;"></image></g><g transform="translate(50.42283630371094,5)"><text class="blocklyText" x="0" y="14">=</text></g><g data-id="9@,}cXYdiY-M2T~)tfyo" class="blocklyDraggable" transform="translate(70.42283630371094,0)" style="display: block;"><path class="blocklyPathDark" transform="translate(1,1)" fill="#1e727a" d=" m 8,0  h 235.84567260742188  v 5  H 243.84567260742188  V 5  H 243.84567260742188  V 22  H 243.84567260742188  V 22  V 26  h -235.84567260742188  H 8  V 20  c 0,-10  -8,8  -8,-7.5  s 8,2.5  8,-7.5 z
"></path><path class="blocklyPath" stroke="none" fill="#268f99" d=" m 8,0  h 235.84567260742188  v 5  H 243.84567260742188  V 5  H 243.84567260742188  V 22  H 243.84567260742188  V 22  V 26  h -235.84567260742188  H 8  V 20  c 0,-10  -8,8  -8,-7.5  s 8,2.5  8,-7.5 z
"></path><path class="blocklyPathLight" stroke="#67b1b8" d=" m 8,0  m 0.5,0.5  H 243.34567260742188  H 243.34567260742188  M 8.5,25.5  M 8.5,25.5  V 20  v -1.5  m -7.36,-0.5  q -1.52,-5.5  0,-11  m 7.36,1  V 0.5 
"></path><g transform="translate(18,5)"><text class="blocklyText" x="0" y="14">RC time PIN</text></g><g class="blocklyEditableText" transform="translate(106,5)" style="cursor: default;"><rect rx="4" ry="4" x="0" y="0" height="17" width="35.42283630371094" class="blocklyFieldRect blocklyDropdownRect" stroke="#67b1b8" fill="transparent"></rect><text class="blocklyText blocklyDropdownText" text-anchor="start" x="5" y="14">13<tspan style="fill: rgb(38, 143, 153);"> ▾</tspan></text><image style="display: none;"></image></g><g transform="translate(146.42283630371094,5)"><text class="blocklyText" x="0" y="14"> </text></g><g class="blocklyEditableText" transform="translate(155.42283630371094,5)" style="cursor: default;"><rect rx="4" ry="4" x="0" y="0" height="17" width="83.42283630371094" class="blocklyFieldRect blocklyDropdownRect" stroke="#67b1b8" fill="transparent"></rect><text class="blocklyText blocklyDropdownText" text-anchor="start" x="5" y="14">discharge<tspan style="fill: rgb(38, 143, 153);"> ▾</tspan></text><image style="display: none;"></image></g></g><g data-id="v.L++^`_XBEPemfU2ydT" class="blocklyDraggable" style="display: block;" transform="translate(0,27)"><path class="blocklyPathDark" transform="translate(1,1)" fill="#1e727a" d=" m 0,0  h 15  l 6,4  3,0  6,-4  h 156.42283630371094  v 5  H 186.42283630371094  V 5  H 186.42283630371094  V 33  H 186.42283630371094  V 33  V 37  h -156.92283630371094  l -6,4  -3,0  -6,-4  h -14.5  H 0 z
 M 92,5  v 5  c 0,10  -8,-8  -8,7.5  s 8,-2.5  8,7.5  v 8  h 38  v -28 z"></path><path class="blocklyPath" stroke="none" fill="#268f99" d=" m 0,0  h 15  l 6,4  3,0  6,-4  h 156.42283630371094  v 5  H 186.42283630371094  V 5  H 186.42283630371094  V 33  H 186.42283630371094  V 33  V 37  h -156.92283630371094  l -6,4  -3,0  -6,-4  h -14.5  H 0 z
 M 92,5  v 5  c 0,10  -8,-8  -8,7.5  s 8,-2.5  8,7.5  v 8  h 38  v -28 z"></path><path class="blocklyPathLight" stroke="#67b1b8" d=" m 0,0  m 0.5,0.5  H 14.5  h 0.5  l 6,4  3,0  6,-4  H 185.92283630371094  H 185.92283630371094  M 0.5,36.5  V 0.5 
 M 130.5,5.5  v 28  h -38  M 92,10  m -5,14.3  l 3.68,-2.1 "></path><g transform="translate(10,10)"><text class="blocklyText" x="0" y="14">make PIN</text></g><g class="blocklyEditableText" transform="translate(135,10)" style="cursor: default;"><rect rx="4" ry="4" x="0" y="0" height="17" width="46.42283630371094" class="blocklyFieldRect blocklyDropdownRect" stroke="#67b1b8" fill="transparent"></rect><text class="blocklyText blocklyDropdownText" text-anchor="start" x="5" y="14">high<tspan style="fill: rgb(38, 143, 153);"> ▾</tspan></text><image style="display: none;"></image></g><g data-id="v[}j${G4,eh_+S7,e$7c" class="blocklyDraggable" style="display: block;" transform="translate(85,6)"><path class="blocklyPathDark" transform="translate(1,1)" fill="#1e547a" d=" m 8,0  h 36  v 5  H 44  V 5  H 44  V 22  H 44  V 22  V 26  h -36  H 8  V 20  c 0,-10  -8,8  -8,-7.5  s 8,2.5  8,-7.5 z
"></path><path class="blocklyPath" stroke="none" fill="#266999" d=" m 8,0  h 36  v 5  H 44  V 5  H 44  V 22  H 44  V 22  V 26  h -36  H 8  V 20  c 0,-10  -8,8  -8,-7.5  s 8,2.5  8,-7.5 z
"></path><path class="blocklyPathLight" stroke="#6796b8" d=" m 8,0  m 0.5,0.5  H 43.5  H 43.5  M 8.5,25.5  M 8.5,25.5  V 20  v -1.5  m -7.36,-0.5  q -1.52,-5.5  0,-11  m 7.36,1  V 0.5 
"></path><g class="blocklyEditableText" transform="translate(13,5)" style="cursor: text;"><rect rx="4" ry="4" x="0" y="0" height="17" width="26" class="blocklyFieldRect"></rect><text class="blocklyText" x="5" y="14">14</text></g></g><g data-id="pwC/1fp?(nff4cEmZQ/Y" class="blocklyDraggable" transform="translate(0,38)"><path class="blocklyPathDark" transform="translate(1,1)" fill="#1e547a" d=" m 0,0  h 15  l 6,4  3,0  6,-4  h 111  v 5  H 141  V 5  H 141  V 33  H 141  V 33  V 37  h -111.5  l -6,4  -3,0  -6,-4  h -14.5  H 0 z
 M 101,5  v 5  c 0,10  -8,-8  -8,7.5  s 8,-2.5  8,7.5  v 8  h 30  v -28 z"></path><path class="blocklyPath" stroke="none" fill="#266999" d=" m 0,0  h 15  l 6,4  3,0  6,-4  h 111  v 5  H 141  V 5  H 141  V 33  H 141  V 33  V 37  h -111.5  l -6,4  -3,0  -6,-4  h -14.5  H 0 z
 M 101,5  v 5  c 0,10  -8,-8  -8,7.5  s 8,-2.5  8,7.5  v 8  h 30  v -28 z"></path><path class="blocklyPathLight" stroke="#6796b8" d=" m 0,0  m 0.5,0.5  H 14.5  h 0.5  l 6,4  3,0  6,-4  H 140.5  H 140.5  M 0.5,36.5  V 0.5 
 M 131.5,5.5  v 28  h -30  M 101,10  m -5,14.3  l 3.68,-2.1 "></path><g data-id="LFz2lSKEZ7d|XXD2s=K~" class="blocklyDraggable" style="display: block;" transform="translate(94,6)"><path class="blocklyPathDark" transform="translate(1,1)" fill="#1e547a" d=" m 8,0  h 28  v 5  H 36  V 5  H 36  V 22  H 36  V 22  V 26  h -28  H 8  V 20  c 0,-10  -8,8  -8,-7.5  s 8,2.5  8,-7.5 z
"></path><path class="blocklyPath" stroke="none" fill="#266999" d=" m 8,0  h 28  v 5  H 36  V 5  H 36  V 22  H 36  V 22  V 26  h -28  H 8  V 20  c 0,-10  -8,8  -8,-7.5  s 8,2.5  8,-7.5 z
"></path><path class="blocklyPathLight" stroke="#6796b8" d=" m 8,0  m 0.5,0.5  H 35.5  H 35.5  M 8.5,25.5  M 8.5,25.5  V 20  v -1.5  m -7.36,-0.5  q -1.52,-5.5  0,-11  m 7.36,1  V 0.5 
"></path><g class="blocklyEditableText" transform="translate(13,5)" style="cursor: text;"><rect rx="4" ry="4" x="0" y="0" height="17" width="18" class="blocklyFieldRect"></rect><text class="blocklyText" x="5" y="14">1</text></g></g><g transform="translate(10,10)"><text class="blocklyText" x="0" y="14">pause (ms)</text></g><g data-id="*ML.`s~6:#lbIJg92?:R" class="blocklyDraggable blocklySelected" transform="translate(0,38)"><path class="blocklyPathDark" transform="translate(1,1)" fill="#2e1e7a" d=" m 0,0  h 15  l 6,4  3,0  6,-4  h 50.42283630371094  v 5  H 80.42283630371094  V 5  H 80.42283630371094  c 0,10  -8,-8  -8,7.5  s 8,-2.5  8,7.5  v 2  H 80.42283630371094  V 22  V 26  h -50.92283630371094  l -6,4  -3,0  -6,-4  h -14.5  H 0 z
"></path><path class="blocklyPath" stroke="none" fill="#392699" d=" m 0,0  h 15  l 6,4  3,0  6,-4  h 50.42283630371094  v 5  H 80.42283630371094  V 5  H 80.42283630371094  c 0,10  -8,-8  -8,7.5  s 8,-2.5  8,7.5  v 2  H 80.42283630371094  V 22  V 26  h -50.92283630371094  l -6,4  -3,0  -6,-4  h -14.5  H 0 z
"></path><path class="blocklyPathLight" stroke="#7467b8" d=" m 0,0  m 0.5,0.5  H 14.5  h 0.5  l 6,4  3,0  6,-4  H 79.92283630371094  H 79.92283630371094  M 80.42283630371094,5  m -5,14.3  l 3.68,-2.1  M 0.5,25.5  V 0.5 
"></path><g class="blocklyEditableText" transform="translate(5,5)" style="cursor: default;"><rect rx="4" ry="4" x="0" y="0" height="17" width="43.42283630371094" class="blocklyFieldRect blocklyDropdownRect" stroke="#7467b8" fill="transparent"></rect><text class="blocklyText blocklyDropdownText" text-anchor="start" x="5" y="14">tRF<tspan style="fill: rgb(57, 38, 153);"> ▾</tspan></text><image style="display: none;"></image></g><g transform="translate(53.42283630371094,5)"><text class="blocklyText" x="0" y="14">=</text></g><g data-id="[hz.eQ1!?UAVn,#Wso:p" class="blocklyDraggable" style="display: block;" transform="translate(73.42283630371094,0)"><path class="blocklyPathDark" transform="translate(1,1)" fill="#1e727a" d=" m 8,0  h 235.84567260742188  v 5  H 243.84567260742188  V 5  H 243.84567260742188  V 22  H 243.84567260742188  V 22  V 26  h -235.84567260742188  H 8  V 20  c 0,-10  -8,8  -8,-7.5  s 8,2.5  8,-7.5 z
"></path><path class="blocklyPath" stroke="none" fill="#268f99" d=" m 8,0  h 235.84567260742188  v 5  H 243.84567260742188  V 5  H 243.84567260742188  V 22  H 243.84567260742188  V 22  V 26  h -235.84567260742188  H 8  V 20  c 0,-10  -8,8  -8,-7.5  s 8,2.5  8,-7.5 z
"></path><path class="blocklyPathLight" stroke="#67b1b8" d=" m 8,0  m 0.5,0.5  H 243.34567260742188  H 243.34567260742188  M 8.5,25.5  M 8.5,25.5  V 20  v -1.5  m -7.36,-0.5  q -1.52,-5.5  0,-11  m 7.36,1  V 0.5 
"></path><g transform="translate(18,5)"><text class="blocklyText" x="0" y="14">RC time PIN</text></g><g class="blocklyEditableText" transform="translate(106,5)" style="cursor: default;"><rect rx="4" ry="4" x="0" y="0" height="17" width="35.42283630371094" class="blocklyFieldRect blocklyDropdownRect" stroke="#67b1b8" fill="transparent"></rect><text class="blocklyText blocklyDropdownText" text-anchor="start" x="5" y="14">14<tspan style="fill: rgb(38, 143, 153);"> ▾</tspan></text><image style="display: none;"></image></g><g transform="translate(146.42283630371094,5)"><text class="blocklyText" x="0" y="14"> </text></g><g class="blocklyEditableText" transform="translate(155.42283630371094,5)" style="cursor: default;"><rect rx="4" ry="4" x="0" y="0" height="17" width="83.42283630371094" class="blocklyFieldRect blocklyDropdownRect" stroke="#67b1b8" fill="transparent"></rect><text class="blocklyText blocklyDropdownText" text-anchor="start" x="5" y="14">discharge<tspan style="fill: rgb(38, 143, 153);"> ▾</tspan></text><image style="display: none;"></image></g></g><g data-id="S`pJ=ZQ#oQ5|dtE{j]PY" class="blocklyDraggable" style="display: block;" transform="translate(0,27)"><path class="blocklyPathDark" transform="translate(1,1)" fill="#7a1e3d" d=" m 0,0  h 15  l 6,4  3,0  6,-4  h 112  v 5  H 142  V 5  H 142  V 22  H 142  V 32  H 142  c 0,10  -8,-8  -8,7.5  s 8,-2.5  8,7.5  v 2  H 142  V 59  H 142  c 0,10  -8,-8  -8,7.5  s 8,-2.5  8,7.5  v 2  H 142  V 86  H 142  c 0,10  -8,-8  -8,7.5  s 8,-2.5  8,7.5  v 2  H 142  V 113  H 142  V 130  H 142  V 130  V 134  h -112.5  l -6,4  -3,0  -6,-4  h -14.5  H 0 z
"></path><path class="blocklyPath" stroke="none" fill="#99264c" d=" m 0,0  h 15  l 6,4  3,0  6,-4  h 112  v 5  H 142  V 5  H 142  V 22  H 142  V 32  H 142  c 0,10  -8,-8  -8,7.5  s 8,-2.5  8,7.5  v 2  H 142  V 59  H 142  c 0,10  -8,-8  -8,7.5  s 8,-2.5  8,7.5  v 2  H 142  V 86  H 142  c 0,10  -8,-8  -8,7.5  s 8,-2.5  8,7.5  v 2  H 142  V 113  H 142  V 130  H 142  V 130  V 134  h -112.5  l -6,4  -3,0  -6,-4  h -14.5  H 0 z
"></path><path class="blocklyPathLight" stroke="#b86782" d=" m 0,0  m 0.5,0.5  H 14.5  h 0.5  l 6,4  3,0  6,-4  H 141.5  H 141.5  M 142,32  m -5,14.3  l 3.68,-2.1  M 142,59  m -5,14.3  l 3.68,-2.1  M 142,86  m -5,14.3  l 3.68,-2.1  M 0.5,133.5  V 0.5 
"></path><g class="blocklyIconGroup" display="block" transform="translate(10,5)"><rect class="blocklyIconShape" rx="4" ry="4" height="16" width="16"></rect><path class="blocklyIconSymbol" d="m4.203,7.296 0,1.368 -0.92,0.677 -0.11,0.41 0.9,1.559 0.41,0.11 1.043,-0.457 1.187,0.683 0.127,1.134 0.3,0.3 1.8,0 0.3,-0.299 0.127,-1.138 1.185,-0.682 1.046,0.458 0.409,-0.11 0.9,-1.559 -0.11,-0.41 -0.92,-0.677 0,-1.366 0.92,-0.677 0.11,-0.41 -0.9,-1.559 -0.409,-0.109 -1.046,0.458 -1.185,-0.682 -0.127,-1.138 -0.3,-0.299 -1.8,0 -0.3,0.3 -0.126,1.135 -1.187,0.682 -1.043,-0.457 -0.41,0.11 -0.899,1.559 0.108,0.409z"></path><circle class="blocklyIconShape" r="2.7" cx="8" cy="8"></circle></g><g transform="translate(37,5)"><text class="blocklyText" x="0" y="14">Terminal print</text></g><g data-id="OR#Orteuc3G^ohE]/7rA" class="blocklyDraggable" transform="translate(0,135)"><path class="blocklyPathDark" transform="translate(1,1)" fill="#1e547a" d=" m 0,0  h 15  l 6,4  3,0  6,-4  h 135  v 5  H 165  V 5  H 165  V 33  H 165  V 33  V 37  h -135.5  l -6,4  -3,0  -6,-4  h -6.5 a 8 8 0 0,1 -8,-8 z
 M 101,5  v 5  c 0,10  -8,-8  -8,7.5  s 8,-2.5  8,7.5  v 8  h 54  v -28 z"></path><path class="blocklyPath" stroke="none" fill="#266999" d=" m 0,0  h 15  l 6,4  3,0  6,-4  h 135  v 5  H 165  V 5  H 165  V 33  H 165  V 33  V 37  h -135.5  l -6,4  -3,0  -6,-4  h -6.5 a 8 8 0 0,1 -8,-8 z
 M 101,5  v 5  c 0,10  -8,-8  -8,7.5  s 8,-2.5  8,7.5  v 8  h 54  v -28 z"></path><path class="blocklyPathLight" stroke="#6796b8" d=" m 0,0  m 0.5,0.5  H 14.5  h 0.5  l 6,4  3,0  6,-4  H 164.5  H 164.5  M 0,37  m 2.6966991411008934,-2.6966991411008934 a 7.5 7.5 0 0,1 -2.1966991411008934,-5.303300858899107  V 0.5 
 M 155.5,5.5  v 28  h -54  M 101,10  m -5,14.3  l 3.68,-2.1 "></path><g data-id="j[3TK22g-:uMRrm1/;KO" class="blocklyDraggable" style="display: block;" transform="translate(94,6)"><path class="blocklyPathDark" transform="translate(1,1)" fill="#1e547a" d=" m 8,0  h 52  v 5  H 60  V 5  H 60  V 22  H 60  V 22  V 26  h -52  H 8  V 20  c 0,-10  -8,8  -8,-7.5  s 8,2.5  8,-7.5 z
"></path><path class="blocklyPath" stroke="none" fill="#266999" d=" m 8,0  h 52  v 5  H 60  V 5  H 60  V 22  H 60  V 22  V 26  h -52  H 8  V 20  c 0,-10  -8,8  -8,-7.5  s 8,2.5  8,-7.5 z
"></path><path class="blocklyPathLight" stroke="#6796b8" d=" m 8,0  m 0.5,0.5  H 59.5  H 59.5  M 8.5,25.5  M 8.5,25.5  V 20  v -1.5  m -7.36,-0.5  q -1.52,-5.5  0,-11  m 7.36,1  V 0.5 
"></path><g class="blocklyEditableText" transform="translate(13,5)" style="cursor: text;"><rect rx="4" ry="4" x="0" y="0" height="17" width="42" class="blocklyFieldRect"></rect><text class="blocklyText" x="5" y="14">1000</text></g></g><g transform="translate(10,10)"><text class="blocklyText" x="0" y="14">pause (ms)</text></g></g><g data-id="BW^$#.s^j!U=XLvwEw_[" class="blocklyDraggable" transform="translate(135,27)" style="display: block;"><path class="blocklyPathDark" transform="translate(1,1)" fill="#2e1e7a" d=" m 8,0  h 50.42283630371094  v 5  H 58.42283630371094  V 5  H 58.42283630371094  V 22  H 58.42283630371094  V 22  V 26  h -50.42283630371094  H 8  V 20  c 0,-10  -8,8  -8,-7.5  s 8,2.5  8,-7.5 z
"></path><path class="blocklyPath" stroke="none" fill="#392699" d=" m 8,0  h 50.42283630371094  v 5  H 58.42283630371094  V 5  H 58.42283630371094  V 22  H 58.42283630371094  V 22  V 26  h -50.42283630371094  H 8  V 20  c 0,-10  -8,8  -8,-7.5  s 8,2.5  8,-7.5 z
"></path><path class="blocklyPathLight" stroke="#7467b8" d=" m 8,0  m 0.5,0.5  H 57.92283630371094  H 57.92283630371094  M 8.5,25.5  M 8.5,25.5  V 20  v -1.5  m -7.36,-0.5  q -1.52,-5.5  0,-11  m 7.36,1  V 0.5 
"></path><g class="blocklyEditableText" transform="translate(13,5)" style="cursor: default;"><rect rx="4" ry="4" x="0" y="0" height="17" width="40.42283630371094" class="blocklyFieldRect blocklyDropdownRect" stroke="#7467b8" fill="transparent"></rect><text class="blocklyText blocklyDropdownText" text-anchor="start" x="5" y="14">tLF<tspan style="fill: rgb(57, 38, 153);"> ▾</tspan></text><image style="display: none;"></image></g></g><g data-id="=x9nmuy,fe9olDqv{~IP" class="blocklyDraggable" transform="translate(135,81)" style="display: block;"><path class="blocklyPathDark" transform="translate(1,1)" fill="#2e1e7a" d=" m 8,0  h 53.42283630371094  v 5  H 61.42283630371094  V 5  H 61.42283630371094  V 22  H 61.42283630371094  V 22  V 26  h -53.42283630371094  H 8  V 20  c 0,-10  -8,8  -8,-7.5  s 8,2.5  8,-7.5 z
"></path><path class="blocklyPath" stroke="none" fill="#392699" d=" m 8,0  h 53.42283630371094  v 5  H 61.42283630371094  V 5  H 61.42283630371094  V 22  H 61.42283630371094  V 22  V 26  h -53.42283630371094  H 8  V 20  c 0,-10  -8,8  -8,-7.5  s 8,2.5  8,-7.5 z
"></path><path class="blocklyPathLight" stroke="#7467b8" d=" m 8,0  m 0.5,0.5  H 60.92283630371094  H 60.92283630371094  M 8.5,25.5  M 8.5,25.5  V 20  v -1.5  m -7.36,-0.5  q -1.52,-5.5  0,-11  m 7.36,1  V 0.5 
"></path><g class="blocklyEditableText" transform="translate(13,5)" style="cursor: default;"><rect rx="4" ry="4" x="0" y="0" height="17" width="43.42283630371094" class="blocklyFieldRect blocklyDropdownRect" stroke="#7467b8" fill="transparent"></rect><text class="blocklyText blocklyDropdownText" text-anchor="start" x="5" y="14">tRF<tspan style="fill: rgb(57, 38, 153);"> ▾</tspan></text><image style="display: none;"></image></g></g><g transform="translate(19,32)"><text class="blocklyText" x="0" y="14">decimal number</text></g><g transform="translate(100,59)"><text class="blocklyText" x="0" y="14">text</text></g><g transform="translate(19,86)"><text class="blocklyText" x="0" y="14">decimal number</text></g><g transform="translate(10,113)"><text class="blocklyText" x="0" y="14">then a new line</text></g><g class="blocklyEditableText" transform="translate(112,113)" style="cursor: default;"><rect rx="4" ry="4" x="0" y="0" height="17" width="14.01025390625" class="blocklyFieldRect"></rect><text class="blocklyText blocklyCheckbox" x="2" y="14" style="display: block;">✓</text></g><g data-id="|6[P/_u?O7sQbvNPD3^8" class="blocklyDraggable" style="display: block;" transform="translate(135,54)"><path class="blocklyPathDark" transform="translate(1,1)" fill="#1e547a" d=" m 8,0  h 54  v 5  H 62  V 5  H 62  V 22  H 62  V 22  V 26  h -54  H 8  V 20  c 0,-10  -8,8  -8,-7.5  s 8,2.5  8,-7.5 z
"></path><path class="blocklyPath" stroke="none" fill="#266999" d=" m 8,0  h 54  v 5  H 62  V 5  H 62  V 22  H 62  V 22  V 26  h -54  H 8  V 20  c 0,-10  -8,8  -8,-7.5  s 8,2.5  8,-7.5 z
"></path><path class="blocklyPathLight" stroke="#6796b8" d=" m 8,0  m 0.5,0.5  H 61.5  H 61.5  M 8.5,25.5  M 8.5,25.5  V 20  v -1.5  m -7.36,-0.5  q -1.52,-5.5  0,-11  m 7.36,1  V 0.5 
"></path><g transform="translate(18,5)"><text class="blocklyText" x="0" y="14">“</text></g><g class="blocklyEditableText" transform="translate(28,5)" style="cursor: text;"><rect rx="4" ry="4" x="0" y="0" height="17" width="14" class="blocklyFieldRect"></rect><text class="blocklyText" x="5" y="14">/</text></g><g transform="translate(47,5)"><text class="blocklyText" x="0" y="14">”</text></g></g></g></g></g></g></g></g></g></g></g></g></g><rect x="100%" y="100%" rx="7" ry="7" width="218" height="84" style="fill:rgba(255,255,255,0.4);" transform="translate(-232,-100)" /><text class="bkginfo" x="100%" y="100%" transform="translate(-225,-83)" style="font-weight:bold;">Parallax BlocklyProp Project</text><text class="bkginfo" x="100%" y="100%" transform="translate(-225,-53)">Title: Sumo with IR and QTI</text><text class="bkginfo" x="100%" y="100%" transform="translate(-225,-23)">Device: flip</text><text class="bkginfo" x="100%" y="100%" transform="translate(-225,-8)">Description: </text><text class="bkginfo" x="100%" y="100%" transform="translate(-225,13)">data-createdon="Mon Nov 23 2020 23:16:25 GMT-0600 (Central Standard Time)" data-lastmodified="Wed May 04 2022 07:35:25 GMT-0600 (Central Standard Time)"></text><text class="bkginfo" x="100%" y="100%" transform="translate(-225,23)">uuid="8279758d-2d69-43b8-9a3d-f0cbe45d2e14" version="1"></text><variables xmlns="https://developers.google.com/blockly/xml"><variable id="?4Q*Rr$6roMvptkz1t@G">tLF</variable><variable id="Vb/ir5%qcgzQj5)5pcct">tRF</variable></variables><block xmlns="https://developers.google.com/blockly/xml" type="controls_repeat" id="0Pzv1;%w.MQ^b1XQKFKV" x="-158" y="-182"><mutation xmlns="http://www.w3.org/1999/xhtml" type="FOREVER"></mutation><field name="TYPE">FOREVER</field><statement name="DO"><block type="console_clear" id="%t7tX3aFY-I8OCAZ|BCc"><next><block type="console_print" id="Uy{DDA*{@%ro)w22`+y{"><field name="ck_nl">TRUE</field><value name="MESSAGE"><block type="string_type_block" id="gzk06Z,V%F8/-ABmt::K"><field name="TEXT">L/R</field></block></value><next><block type="make_pin_input" id="E~F~/(K?hA!mDx~}DLju"><field name="ACTION">HIGH</field><value name="PIN"><block type="math_number" id="(@D+54`9`q]cK4k4/#c%"><mutation xmlns="http://www.w3.org/1999/xhtml" blocktext="" warntext=""></mutation><field name="NUM">13</field></block></value><next><block type="base_delay" id="#g+i2=Z}d.3kpLxU5xzY"><value name="DELAY_TIME"><block type="math_number" id="$@kx)BmKy}0T=)PeaDb~"><mutation xmlns="http://www.w3.org/1999/xhtml" blocktext="" warntext=""></mutation><field name="NUM">1</field></block></value><next><block type="variables_set" id="@OqyW.G!:,-u71|?*VgN"><field name="VAR" id="?4Q*Rr$6roMvptkz1t@G">tLF</field><value name="VALUE"><block type="rc_charge_discharge" id="9@,}cXYdiY-M2T~)tfyo"><mutation xmlns="http://www.w3.org/1999/xhtml" otherpin="false"></mutation><field name="PIN">13</field><field name="STATE">1</field></block></value><next><block type="make_pin_input" id="v.L++^`_XBEPemfU2ydT"><field name="ACTION">HIGH</field><value name="PIN"><block type="math_number" id="v[}j${G4,eh_+S7,e$7c"><mutation xmlns="http://www.w3.org/1999/xhtml" blocktext="" warntext=""></mutation><field name="NUM">14</field></block></value><next><block type="base_delay" id="pwC/1fp?(nff4cEmZQ/Y"><value name="DELAY_TIME"><block type="math_number" id="LFz2lSKEZ7d|XXD2s=K~"><mutation xmlns="http://www.w3.org/1999/xhtml" blocktext="" warntext=""></mutation><field name="NUM">1</field></block></value><next><block type="variables_set" id="*ML.`s~6:#lbIJg92?:R"><field name="VAR" id="Vb/ir5%qcgzQj5)5pcct">tRF</field><value name="VALUE"><block type="rc_charge_discharge" id="[hz.eQ1!?UAVn,#Wso:p"><mutation xmlns="http://www.w3.org/1999/xhtml" otherpin="false"></mutation><field name="PIN">14</field><field name="STATE">1</field></block></value><next><block type="console_print_multiple" id="S`pJ=ZQ#oQ5|dtE{j]PY"><mutation xmlns="http://www.w3.org/1999/xhtml" options="[&quot;dec&quot;,&quot;str&quot;,&quot;dec&quot;]" divisors="[&quot;0&quot;,&quot;0&quot;,&quot;0&quot;]"></mutation><field name="ck_nl">TRUE</field><value name="PRINT0"><block type="variables_get" id="BW^$#.s^j!U=XLvwEw_["><field name="VAR" id="?4Q*Rr$6roMvptkz1t@G">tLF</field></block></value><value name="PRINT1"><block type="string_type_block" id="|6[P/_u?O7sQbvNPD3^8"><field name="TEXT">/</field></block></value><value name="PRINT2"><block type="variables_get" id="=x9nmuy,fe9olDqv{~IP"><field name="VAR" id="Vb/ir5%qcgzQj5)5pcct">tRF</field></block></value><next><block type="base_delay" id="OR#Orteuc3G^ohE]/7rA"><value name="DELAY_TIME"><block type="math_number" id="j[3TK22g-:uMRrm1/;KO"><mutation xmlns="http://www.w3.org/1999/xhtml" blocktext="" warntext=""></mutation><field name="NUM">1000</field></block></value></block></next></block></next></block></next></block></next></block></next></block></next></block></next></block></next></block></next></block></statement></block><ckm>000000000000</ckm></svg>